<svg id="Layer_1" enable-background="new 0 0 512.002 512.002" height="512" viewBox="0 0 512.002 512.002" width="512" xmlns="http://www.w3.org/2000/svg"><g><path d="m381.721 256.002h-114.079c-3.074-6.825-21.951-52.112-5.234-99.58 1.22.76 2.489 1.458 3.812 2.077.119.055.238.109.358.162l44.116 19.329c9.367 4.104 19.253 6.081 29.048 6.081 21.487 0 42.525-9.516 56.625-26.966l30.271-37.463c.083-.102.164-.205.243-.309 6.613-8.607 8.94-19.555 6.385-30.035s-9.659-19.129-19.491-23.728c-.119-.055-.238-.109-.358-.162l-44.116-19.329c-29.916-13.107-65.146-4.518-85.673 20.886l-14.03 17.363-2.053-15.306c-4.342-32.372-29.983-58.013-62.354-62.354l-47.737-6.403c-.129-.018-.259-.033-.389-.047-10.791-1.185-21.354 2.519-28.981 10.148-7.628 7.627-11.327 18.191-10.148 28.981.014.13.03.26.047.389l6.403 47.737c4.342 32.372 29.983 58.013 62.354 62.354l42.383 5.685c-11.691 41.834-2.777 80.156 4.176 100.49h-107.578c-26.467 0-48 21.533-48 48 0 20.858 13.377 38.643 32 45.248v46.752c0 63.962 52.038 116 116 116h56c63.962 0 116-52.038 116-116v-46.752c18.623-6.605 32-24.389 32-45.248 0-26.468-21.533-48-48-48zm-103.305-131.67 30.103-37.255c11.487-14.215 31.201-19.023 47.942-11.688l43.87 19.221c1.216.611 1.676 1.564 1.847 2.266s.201 1.759-.598 2.862l-30.102 37.253c-11.487 14.216-31.2 19.024-47.942 11.687l-43.87-19.221c-1.216-.611-1.676-1.564-1.847-2.266-.171-.7-.201-1.757.597-2.859zm-122.314-41.113-6.367-47.472c-.109-1.356.466-2.244.976-2.754.511-.51 1.399-1.087 2.754-.976l47.472 6.367c18.114 2.43 32.463 16.778 34.893 34.893l6.367 47.471c.109 1.356-.466 2.245-.976 2.755-.511.511-1.396 1.089-2.755.976l-47.471-6.367c-18.114-2.431-32.463-16.779-34.893-34.893zm209.619 312.783c0 46.318-37.682 84-84 84h-56c-46.318 0-84-37.682-84-84v-44h224zm16-76h-256c-8.822 0-16-7.178-16-16s7.178-16 16-16h256c8.822 0 16 7.178 16 16s-7.178 16-16 16z"/></g></svg>