<svg height="512pt" viewBox="-48 0 512 512.001" width="512pt" xmlns="http://www.w3.org/2000/svg"><path d="m400.601562 64.265625h-64.28125c-43.699218 0-79.253906 35.554687-79.253906 79.25v.035156c0 19.007813 6.734375 36.476563 17.9375 50.144531l-52.203125 62.648438v-34.390625c0-27.957031-9.386719-55.554687-26.433593-77.714844l-9.582032-12.460937c12.398438-13.992188 19.949219-32.375 19.949219-52.496094v-.03125c0-43.699219-35.554687-79.25-79.25-79.25h-64.285156c-8.28125 0-15 6.714844-15 15v64.28125c0 43.699219 35.554687 79.25 79.285156 79.25 12.769531 0 24.839844-3.054688 35.535156-8.445312l9.570313 12.441406c13.03125 16.945312 20.210937 38.050781 20.210937 59.425781v75.734375.011719 74.324219l-52.203125-62.644532c11.203125-13.671875 17.9375-31.136718 17.9375-50.148437v-.035157c0-43.699218-35.550781-79.25-79.25-79.25h-64.285156c-8.285156 0-15 6.71875-15 15v64.285157c0 43.699219 35.550781 79.25 79.28125 79.25 13.875 0 26.921875-3.59375 38.277344-9.886719l75.242187 90.289062v15.578126c-65.429687 5.675781-102.167969 46.027343-108.074219 51.933593-5.855468 5.859375-5.855468 15.355469 0 21.210938 5.859376 5.859375 15.355469 5.859375 21.214844 0 33.6875-33.679688 69.726563-43.804688 101.867188-43.804688 32.042968 0 68.105468 10.070313 101.851562 43.804688 2.929688 2.929687 6.769532 4.394531 10.605469 4.394531 3.839844 0 7.679687-1.464844 10.609375-4.394531 5.855469-5.855469 5.855469-15.351563 0-21.210938-5.953125-5.949219-42.667969-46.257812-108.074219-51.933593v-21.082032c0-.003906 0-.007812 0-.011718v-110.164063l75.242188-90.292969c11.363281 6.292969 24.417969 9.890625 38.304687 9.890625 43.699219 0 79.25-35.554687 79.25-79.25v-64.285156c.003906-8.285156-6.714844-15-14.996094-15zm-273.148437 64.265625c-27.15625 0-49.25-22.09375-49.25-49.25v-49.28125h49.28125c27.15625 0 49.25 22.09375 49.25 49.25v.03125c0 10.402344-3.25 20.058594-8.777344 28.015625l-28.597656-37.175781h-.003906c-5.050781-6.566406-14.46875-7.796875-21.035157-2.746094-6.566406 5.050781-7.792968 14.46875-2.742187 21.035156l28.609375 37.195313c-5.226562 1.890625-10.859375 2.925781-16.734375 2.925781zm-48.203125 179.949219c-27.15625 0-49.25-22.09375-49.25-49.25v-49.285157h49.28125c27.160156 0 49.253906 22.09375 49.253906 49.25v.035157c0 9.714843-2.839844 18.773437-7.71875 26.414062l-30.027344-36.035156c-5.304687-6.363281-14.761718-7.222656-21.125-1.917969-6.363281 5.300782-7.222656 14.761719-1.921874 21.125l30.035156 36.039063c-5.722656 2.332031-11.972656 3.625-18.527344 3.625zm306.351562-164.929688c0 27.15625-22.09375 49.25-49.28125 49.25-6.542968 0-12.785156-1.292969-18.5-3.621093l30.039063-36.042969c5.300781-6.367188 4.441406-15.824219-1.921875-21.128907-6.367188-5.300781-15.820312-4.441406-21.128906 1.921876l-30.027344 36.035156c-4.875-7.640625-7.714844-16.699219-7.714844-26.417969v-.03125c0-27.15625 22.09375-49.25 49.253906-49.25h49.28125zm0 0"/></svg>