<svg height="512pt" viewBox="0 0 512.00026 512" width="512pt" xmlns="http://www.w3.org/2000/svg"><path d="m512 74.234375c0-18.824219-7.058594-36.78125-19.875-50.566406-14.023438-15.074219-33.082031-23.480469-53.667969-23.66406275-20.617187-.17187525-39.789062 7.87499975-54.078125 22.69921875l-47.074218 48.832031-53.59375-45.730468-42.558594 42.46875c-28.433594-27.304688-73.761719-26.976563-101.765625 1.023437-27.964844 27.96875-28.328125 73.222656-1.125 101.660156l-44.457031 44.371094 65 75.78125-128.804688 41.171875v63.71875h186.304688c20.632812 0 40.3125 9.148438 53.996093 25.101562 11.324219 13.207032 27.800781 21.171876 45.199219 21.851563.8125.03125 1.621094.046875 2.429688.046875 16.550781 0 32.597656-6.597656 44.347656-18.308594l131.300781-130.863281c12.351563-12.308594 19.050781-29.355469 18.375-46.769531-.027344-.6875-.082031-1.371094-.132813-2.058594h.179688zm-98.824219-23.769531c6.511719-6.757813 15.238281-10.464844 24.605469-10.464844h.320312c9.484376.085938 18.269532 3.960938 24.730469 10.910156 5.914063 6.355469 9.167969 14.640625 9.167969 23.324219v112.230469l-104.210938-88.917969zm-245.503906 47.117187c12.398437-12.394531 32.34375-12.742187 45.167969-1.050781l-46.265625 46.171875c-11.644531-12.828125-11.28125-32.738281 1.097656-45.121094zm297.667969 167.914063-131.300782 130.863281c-4.535156 4.519531-10.5625 6.867187-16.976562 6.621094-6.410156-.25-12.234375-3.0625-16.402344-7.921875-21.292968-24.820313-52.039062-39.058594-84.355468-39.058594h-129.128907l141.253907-45.152344-80.113282-93.40625 137.515625-137.246094 178.21875 152.070313c4.867188 4.15625 7.683594 9.957031 7.933594 16.339844.246094 6.375-2.113281 12.375-6.644531 16.890625zm-435.339844 156.503906s30 43.429688 30 60-13.429688 30-30 30-30-13.433594-30-30 30-60 30-60zm0 0"/></svg>