<?xml version="1.0" encoding="utf-8"?>
<!-- Generator: Adobe Illustrator 24.2.3, SVG Export Plug-In . SVG Version: 6.00 Build 0)  -->
<svg version="1.1" id="Layer_1" xmlns="http://www.w3.org/2000/svg" xmlns:xlink="http://www.w3.org/1999/xlink" x="0px" y="0px"
	 viewBox="0 0 512 512" style="enable-background:new 0 0 512 512;" xml:space="preserve">
<path d="M197.8,509.2c-98.9,0-176.3-74.9-176.3-170.6c0-30.4,8-60.5,23-87L182.2,9c2.1-3.8,6.3-6.2,10.6-6.2c4.3,0,8.4,2.4,10.5,6
	l82.2,136.4L362.9,9c2.1-3.8,6.3-6.2,10.6-6.2c4.4,0,8.4,2.3,10.5,6l90,149.2c9.9,16.2,16.4,31.6,16.4,53.8
	c0,30.3-11.9,58.9-33.4,80.4c-21.5,21.5-50.1,33.4-80.4,33.4h-3.1l0.2,3c0.3,3.9,0.4,7.9,0.4,12.2c0,46.7-18.4,89.7-51.9,120.9
	C289.6,492.3,245.4,509.2,197.8,509.2z M65.8,263.6c-12.9,22.8-19.8,48.7-19.8,75c0,40.1,15.7,77.1,44.3,104.3
	c28.3,27,66.5,41.9,107.6,41.9c41.2,0,79.5-14.5,107.7-40.7c28.5-26.6,44.2-63.2,44.2-103.1c0-5.6-0.3-11.3-0.9-16.7l-0.2-2
	l-1.8-0.5c-49.4-13.5-83.9-58.7-83.9-109.8c0-14.6,2.7-27.1,8.6-40.5l0.6-1.3l-79-131L65.8,263.6z M297.2,174.5
	c-0.1,0.2-0.2,0.5-0.4,0.9l-0.4,0.8c-6.3,12.3-9.1,23.3-9.1,35.8c0,49.3,40.1,89.4,89.4,89.4s89.4-40.1,89.4-89.4
	c0-14.7-3.4-25.5-12.9-41.2L373.8,39.2l-74.9,132c-0.2,0.3-0.3,0.6-0.5,0.9c-0.4,0.7-0.7,1.2-0.9,1.7L297.2,174.5z"/>
</svg>
