<svg id="Layer_1" enable-background="new 0 0 510.368 510.368" height="512" viewBox="0 0 510.368 510.368" width="512" xmlns="http://www.w3.org/2000/svg"><path d="m491.707 211.176c0-22.739-6.688-38.478-16.729-55.114l-89.824-148.813c-2.753-4.56-7.733-7.338-13.043-7.247-5.326.071-10.215 2.962-12.844 7.594l-74.674 131.569-79.562-131.911c-2.751-4.563-7.753-7.327-13.043-7.251-5.327.07-10.217 2.961-12.847 7.594l-137.212 241.753c-15.222 26.82-23.269 57.297-23.269 88.137 0 96.942 78.432 172.88 178.558 172.88 48.027 0 92.732-17.017 125.881-47.916 33.969-31.664 52.677-75.208 52.677-122.608 0-3.988-.161-8.164-.459-12.391.037 0 .074.001.111.001 64.117.001 116.279-52.161 116.279-116.277zm-118.996-166.488 76.583 126.877c9.165 15.184 12.413 25.549 12.413 39.611 0 47.574-38.705 86.278-86.279 86.278s-86.279-38.704-86.279-86.278c0-12.108 2.558-22.37 8.681-34.322.364-.592.684-1.206.961-1.838.513-.959 1.043-1.928 1.602-2.912zm-26.934 295.155c0 38.987-15.318 74.737-43.133 100.664-27.576 25.704-65.017 39.86-105.426 39.86-40.187 0-77.586-14.536-105.31-40.93-27.889-26.551-43.248-62.758-43.248-101.95 0-25.658 6.694-51.015 19.359-73.329l124.56-219.463 75.414 125.035c-6.125 13.761-8.844 26.728-8.844 41.445 0 53.533 36.367 98.725 85.691 112.188.606 5.628.937 11.324.937 16.48z"/></svg>